<?xml version="1.0" encoding="utf-8"?>
<!-- Generator: Adobe Illustrator 26.5.2, SVG Export Plug-In . SVG Version: 6.00 Build 0)  -->
<svg version="1.1" id="Layer_2_00000139261270120628367290000013825898057124615101_"
	 xmlns="http://www.w3.org/2000/svg" xmlns:xlink="http://www.w3.org/1999/xlink" x="0px" y="0px" viewBox="0 0 49.5 61"
	 style="enable-background:new 0 0 49.5 61;" xml:space="preserve">
<style type="text/css">
	.st0{fill:#F2F2F2;}
</style>
<path class="st0" d="M49.4,42.4C49.3,42.1,49,42,48.7,42c-0.8,0-1.4,0-2,0.1c-0.3-5.3-3.8-9.9-8.6-11.7c0-7.2-5.8-13.1-13-13.3
	L23.5,3.4c-0.1-0.5-0.5-0.8-1-0.8l-3.8,0.5c-0.2,0-0.5,0.2-0.6,0.3C18,3.6,17.9,3.9,18,4.1l1.6,14.1c-0.6,0.3-1.1,0.5-1.7,0.9
	L12,0.6c-0.1-0.5-0.7-0.7-1.1-0.6L7.2,1.2C7,1.3,6.8,1.5,6.7,1.7s-0.1,0.5,0,0.7l6.8,21.1c-1.3,2-2,4.4-2,7
	c-4.8,1.8-8.3,6.3-8.6,11.7C2.3,42,1.6,42,0.9,42c-0.3,0-0.6,0.2-0.8,0.4C0,42.6,0,43,0.1,43.2l7.1,16.1c0.5,1,1.5,1.7,2.6,1.7h30
	c1.1,0,2.1-0.7,2.6-1.7l7.1-16.1C49.6,43,49.6,42.6,49.4,42.4L49.4,42.4L49.4,42.4z M44.9,42.4c-1,0.3-1.8,0.7-2.6,1
	c-1.4,0.7-2.8,1.3-5.6,1.3s-4.2-0.7-5.6-1.3c-0.5-0.3-1-0.5-1.6-0.7c0-3.4-1.3-6.5-3.4-8.8c2.1-1.7,4.6-2.6,7.3-2.6
	C39.6,31.3,44.7,36.3,44.9,42.4L44.9,42.4L44.9,42.4z M20.6,10.9l1.8-2.3l0.4,3.2l-1.8,2.3C20.9,14.1,20.6,10.9,20.6,10.9z
	 M21.9,4.5l0.2,1.6l-1.8,2.3l-0.4-3.6L21.9,4.5L21.9,4.5z M21.2,16.6l1.8-2.3l0.3,2.9c-0.7,0.1-1.4,0.2-2,0.4L21.2,16.6L21.2,16.6z
	 M12.3,14l1.3-2.6l1,3.1L13.3,17L12.3,14z M10.5,8.5l1.3-2.6l1,3.1l-1.3,2.6L10.5,8.5z M10.5,2L11,3.6L9.7,6.1L8.6,2.7L10.5,2
	L10.5,2z M14,19.4l1.3-2.6l1.1,3.3c-0.6,0.5-1.1,1-1.6,1.6L14,19.4L14,19.4z M24.8,18.9c6.2,0,11.2,4.9,11.5,11
	c-0.9-0.2-1.9-0.3-2.9-0.3c-3.2,0-6.2,1.1-8.6,3.2c-2.3-2-5.3-3.1-8.6-3.1c-1,0-2,0.1-2.9,0.3C13.6,23.8,18.6,18.9,24.8,18.9
	C24.8,18.9,24.8,18.9,24.8,18.9z M9.3,33.6l0.2,0.3c0.2,0.2,0.4,0.3,0.7,0.3c0.2,0,0.4-0.1,0.6-0.2c0.4-0.3,0.4-0.9,0.1-1.3
	l-0.1-0.1c1.6-0.8,3.4-1.3,5.4-1.3c1.1,0,2.2,0.1,3.2,0.4L19,32.1c-0.4,0.3-0.4,0.9,0,1.3c0.2,0.2,0.4,0.3,0.7,0.3
	c0.2,0,0.4-0.1,0.6-0.2l0.8-0.7c0.1,0,0.1-0.1,0.1-0.2c3.7,1.8,6.3,5.5,6.5,9.8C27,42.1,26.1,42,25.1,42l-0.5-1.2
	c-0.2-0.5-0.7-0.7-1.2-0.5C23,40.5,22.8,41,23,41.5l0.2,0.6c-2.2,0.2-3.5,0.8-4.8,1.5c-1.4,0.7-2.8,1.3-5.6,1.3c-0.8,0-1.4,0-2-0.1
	c0.2-0.3,0.2-0.6,0-0.9c-0.2-0.4-0.8-0.6-1.2-0.3l-1.1,0.6c0,0,0,0,0,0c-0.5-0.2-0.9-0.4-1.3-0.6c-0.8-0.4-1.6-0.8-2.6-1
	C4.8,38.8,6.6,35.6,9.3,33.6L9.3,33.6L9.3,33.6z M40.7,58.6c-0.2,0.4-0.5,0.6-0.9,0.6h-30c-0.4,0-0.8-0.2-0.9-0.6L4.3,48.3
	c0.2,0.1,0.4,0.2,0.5,0.3c1.8,0.8,3.9,1.9,8,1.9s6.3-1,8-1.9c1.3-0.6,2-1,3.9-1s2.6,0.3,3.9,1c1.8,0.8,4,1.9,8,1.9
	c0.9,0,1.7,0,2.5-0.2c0.5-0.1,0.8-0.5,0.8-1c-0.1-0.5-0.5-0.8-1-0.8c-0.7,0.1-1.5,0.1-2.3,0.1c-3.7,0-5.6-0.9-7.2-1.7
	c-1.4-0.7-2.4-1.2-4.7-1.2s-3.3,0.5-4.7,1.2c-1.7,0.8-3.6,1.7-7.2,1.7S7.3,47.8,5.6,47c-0.8-0.4-1.4-0.7-2.3-0.9l-1-2.2
	c1.9,0.2,3,0.7,4.2,1.3c1.6,0.8,3.2,1.5,6.4,1.5s4.8-0.8,6.4-1.5c1.4-0.7,2.8-1.3,5.6-1.3s4.2,0.7,5.6,1.3c1.6,0.8,3.2,1.5,6.4,1.5
	s4.8-0.8,6.4-1.5c1.2-0.6,2.3-1.1,4.2-1.3l-1,2.2c-0.9,0.2-1.5,0.5-2.3,0.9c-0.4,0.2-0.9,0.4-1.4,0.6c-0.5,0.2-0.7,0.7-0.5,1.2
	c0.1,0.3,0.5,0.5,0.8,0.5c0.1,0,0.2,0,0.3-0.1c0.5-0.2,1-0.5,1.5-0.7c0.2-0.1,0.4-0.2,0.5-0.3L40.7,58.6L40.7,58.6z"/>
<path class="st0" d="M8.7,40c0.1,0.4,0.5,0.7,0.9,0.7c0,0,0.1,0,0.2,0c0.5-0.1,0.8-0.5,0.7-1l-0.3-1.7c-0.1-0.5-0.5-0.8-1-0.7
	c-0.5,0.1-0.8,0.5-0.7,1L8.7,40L8.7,40z"/>
<path class="st0" d="M14,36.9c0.2,0,0.4-0.1,0.6-0.2l0.5-0.4c0.4-0.3,0.4-0.9,0.1-1.3c-0.3-0.4-0.9-0.4-1.3-0.1l-0.5,0.4
	c-0.4,0.3-0.4,0.9-0.1,1.3C13.6,36.8,13.8,36.9,14,36.9C14,36.9,14,36.9,14,36.9z"/>
<path class="st0" d="M20.3,38c0.2,0.2,0.4,0.2,0.6,0.2c0.2,0,0.5-0.1,0.7-0.3c0.3-0.4,0.3-0.9-0.1-1.3l-0.7-0.6
	c-0.4-0.3-0.9-0.3-1.3,0.1c-0.3,0.4-0.3,0.9,0.1,1.3L20.3,38z"/>
<path class="st0" d="M15.2,41.6c0,0.5,0.4,0.8,0.9,0.8h0c0.5,0,0.9-0.4,0.9-0.9L17,40.2c0-0.5-0.4-0.9-0.9-0.8s-0.9,0.4-0.9,0.9
	L15.2,41.6z"/>
</svg>
