<?xml version="1.0" encoding="UTF-8"?><svg id="Layer_1" xmlns="http://www.w3.org/2000/svg" viewBox="0 0 87.73 61.19"><defs><style>.cls-1{fill:#f2f2f2;}</style></defs><g><path class="cls-1" d="M87.51,31.95c-.35-1.22-1.3-2.88-3.89-3.85-5.18-1.94-9.09,3.02-10.22,4.67h-5.58c-1.33-1.9-3.53-3.14-6.02-3.14h-.62c-.96-3.63-3.06-6.9-5.99-9.29-3.18-2.61-7.21-4.04-11.33-4.04H27.42c-2.34-.39-5.05,.2-7.79,1.77-1.98,1.13-3.95,1.88-5.87,2.22-4,.72-7.65,3.21-10.27,7.01C.55,31.55-.61,36.76,.31,41.6c.37,1.95,.4,4,.1,6.1-.8,5.58,.57,10.01,3.76,12.18,.61,.41,1.27,.73,1.97,.94,.18,.16,.42,.25,.66,.25h.37c.47,.08,.95,.12,1.45,.12s1.01-.04,1.52-.12H43.86c4.12,0,8.15-1.43,11.33-4.04,2.92-2.39,5.03-5.67,5.99-9.29h.62c2.49,0,4.69-1.24,6.02-3.14h5.58c.94,1.39,3.86,5.12,7.84,5.12,.76,0,1.55-.13,2.38-.44,2.59-.97,3.54-2.63,3.89-3.85,.57-2.01,0-4.48-1.54-6.73,1.53-2.25,2.11-4.73,1.54-6.73Zm-1.96,12.91c-.32,1.12-1.21,1.96-2.64,2.5-.55,.21-1.08,.3-1.6,.3-3.67,0-6.43-4.55-6.46-4.6-.18-.31-.52-.5-.88-.5h-5.13c.21-.69,.33-1.42,.33-2.17v-3.4c0-.76-.11-1.49-.33-2.17h5.13c.36,0,.69-.19,.88-.5,.04-.06,3.6-5.98,8.06-4.3,1.44,.54,2.32,1.38,2.64,2.5,.43,1.53-.21,3.71-1.64,5.55-.29,.37-.29,.88,0,1.25,1.43,1.85,2.07,4.02,1.64,5.55Zm-20.51-.26c-.9,.69-2.02,1.1-3.23,1.1h-1.43c-.48,0-.9,.34-1,.81-1.56,7.26-8.08,12.53-15.51,12.53H15.46c1.81-.97,3.61-1.63,5.37-1.94,4-.72,7.65-3.21,10.27-7.01,2.93-4.26,4.09-9.47,3.18-14.31-.37-1.95-.4-4-.1-6.1,.7-4.92-.28-8.96-2.72-11.33h12.4c7.43,0,13.96,5.27,15.51,12.53,.1,.47,.52,.81,1,.81h1.43c1.21,0,2.33,.41,3.23,1.1,.38,.29,.72,.64,1.01,1.02,.24,.31,.44,.66,.6,1.02,.3,.66,.47,1.4,.47,2.17v3.4c0,.77-.17,1.51-.47,2.17-.16,.36-.37,.71-.6,1.02-.29,.38-.63,.73-1.01,1.02ZM2.31,41.22c-.81-4.31,.23-8.96,2.85-12.77,2.31-3.35,5.49-5.54,8.95-6.16,2.15-.39,4.35-1.21,6.53-2.46,1.24-.71,2.43-1.18,3.56-1.43,.41-.09,.81-.15,1.2-.18,.19-.01,.38-.02,.56-.02,.46,0,.91,.05,1.33,.14,.72,.15,1.38,.43,1.98,.84,2.51,1.71,3.57,5.43,2.88,10.2-.33,2.32-.29,4.6,.12,6.77,.81,4.31-.23,8.96-2.85,12.77-2.31,3.35-5.49,5.54-8.95,6.16-2.15,.39-4.35,1.21-6.53,2.46-1.36,.77-2.66,1.27-3.89,1.5-1,.18-1.94,.18-2.81,0-.34-.07-.67-.18-.98-.31-.33-.14-.65-.31-.96-.52-2.51-1.71-3.57-5.43-2.88-10.2,.33-2.32,.29-4.6-.12-6.77Z"/><path class="cls-1" d="M4.59,48.3h0c-.54,3.8,.2,6.9,1.95,8.09,.19,.13,.4,.24,.62,.32,.31,.12,.65,.2,1.01,.24,.15,.01,.3,.02,.46,.02,.22,0,.44-.01,.67-.04,1.07-.13,2.29-.56,3.56-1.29,2.4-1.37,4.83-2.28,7.22-2.71,2.84-.51,5.59-2.42,7.54-5.25,2.26-3.29,3.2-7.45,2.5-11.13-.45-2.4-.5-4.92-.13-7.48,.54-3.8-.2-6.9-1.95-8.09-.67-.46-1.53-.64-2.5-.56-.39,.03-.79,.1-1.21,.21-.43,.11-.87,.27-1.32,.46-.42,.18-.85,.39-1.29,.64-2.4,1.37-4.83,2.28-7.22,2.71-2.84,.51-5.59,2.42-7.54,5.25-2.26,3.29-3.2,7.45-2.5,11.13,.45,2.4,.5,4.92,.13,7.48ZM21.67,24.07c.35-.18,.7-.37,1.06-.57,.14-.08,.28-.16,.42-.23,.5-.26,.96-.45,1.38-.59,1.17-.38,1.97-.29,2.37-.02,.15,.11,.3,.26,.44,.47-1.7,.5-2.74,1.62-3.67,2.62-.31,.33-.61,.66-.93,.96-.47,.44-.99,.84-1.62,1.13-.04,.02-.08,.04-.12,.06-.46,.2-.89,.41-1.31,.64-4.21,2.31-6.24,6.01-6.64,6.8-1.02,1.48-1.63,3.3-1.61,5.08h0c.02,1.48,.5,2.76,1.34,3.64,.19,.2,.41,.38,.64,.54,.06,.04,.12,.08,.19,.12,.3,.18,.61,.32,.93,.41,.37,.11,.75,.16,1.15,.16,.09,0,.18,0,.27,0-.64,.56-1.37,1.11-2.2,1.59-.44,.26-.91,.5-1.42,.71h-.02c-.58,.26-1.07,.56-1.51,.9-.72,.55-1.3,1.17-1.83,1.74-.8,.86-1.46,1.57-2.44,1.95-.14-.96-.15-2.16,.05-3.58,.4-2.78,.35-5.52-.15-8.15-.6-3.16,.22-6.74,2.18-9.59,1.64-2.38,3.91-3.99,6.22-4.4,2.27-.41,4.56-1.21,6.82-2.37Zm-11.33,30.5c-.47,.17-.89,.27-1.26,.32-.45,.06-.82,.03-1.09-.05-.12-.04-.22-.08-.3-.14-.18-.12-.36-.32-.51-.58,.57-.21,1.06-.48,1.49-.8,.71-.52,1.29-1.13,1.82-1.71l.11-.11c.57-.62,1.14-1.21,1.85-1.66,.22-.14,.45-.27,.71-.38,5.55-2.38,7.92-7.37,8.02-7.58l-.04-.02c.95-1.45,1.52-3.2,1.49-4.91-.03-1.82-.75-3.34-1.98-4.18-.15-.11-.32-.2-.48-.28-.31-.15-.63-.26-.97-.33-.32-.06-.66-.09-1-.08,.47-.42,.99-.82,1.57-1.2,.46-.3,.96-.59,1.5-.85,.18-.09,.36-.17,.54-.25,1.53-.66,2.5-1.71,3.36-2.64,.9-.97,1.63-1.76,2.84-2.08,.16,.98,.18,2.23-.04,3.71-.4,2.78-.35,5.52,.15,8.15,.6,3.16-.22,6.74-2.18,9.59-1.64,2.38-3.91,3.99-6.22,4.4-2.63,.47-5.28,1.46-7.87,2.95-.54,.31-1.04,.54-1.5,.71Zm3.42-12.71c-.17-.42-.27-.92-.28-1.47-.04-2.39,1.58-5.04,3.58-5.95,.08-.04,.17-.07,.25-.11,.35-.13,.69-.2,1.01-.21,.37,0,.71,.07,1.01,.24,.06,.03,.11,.06,.16,.1,.68,.46,1.07,1.38,1.09,2.52,.04,2.49-1.72,5.26-3.83,6.06-.49,.18-.95,.24-1.36,.18-.3-.04-.57-.14-.82-.31-.04-.03-.08-.06-.12-.09-.29-.24-.53-.56-.69-.96Z"/></g><circle class="cls-1" cx="36.28" cy="12.9" r="1.48"/><circle class="cls-1" cx="35.49" cy="4.51" r="1.48"/><circle class="cls-1" cx="48.79" cy="12.37" r=".95"/><circle class="cls-1" cx="18.69" cy="14.8" r=".95"/><circle class="cls-1" cx="27" cy="10.09" r=".62"/><circle class="cls-1" cx="41.2" cy="8.26" r=".53"/></svg>