<?xml version="1.0" encoding="utf-8"?>
<!-- Generator: Adobe Illustrator 26.5.2, SVG Export Plug-In . SVG Version: 6.00 Build 0)  -->
<svg version="1.1" id="Layer_3" xmlns="http://www.w3.org/2000/svg" xmlns:xlink="http://www.w3.org/1999/xlink" x="0px" y="0px"
	 viewBox="0 0 53.2 52.8" style="enable-background:new 0 0 53.2 52.8;" xml:space="preserve">
<style type="text/css">
	.st0{fill:#F2F2F2;}
	.st1{fill:none;}
	.st2{fill:none;stroke:#F2F2F2;stroke-linecap:round;stroke-linejoin:round;}
</style>
<path class="st0" d="M3.8,13.8C4.7,15,6,16.1,7,17.6C11.4,24,19.5,37.2,25.9,51c11.7-7,2.3-23.9,2.3-23.9l-0.7,2.2
	c-4.1-9.1-12.3-13.7-12.3-13.7l0.3,2C11.8,12.9,2.4,11,2.4,11s-3,9.2-0.8,14.7L0,24.5c0,0,0.1,9.3,5.9,17.4l-2.3-0.5
	c0,0,9.4,15.5,20.8,10.4c0,0-9.7-21.6-17.8-34C4.9,15.3,3.8,13.8,3.8,13.8L3.8,13.8z"/>
<path class="st0" d="M19.9,7.7c0,0.6-0.5,1-1,1s-1-0.5-1-1s0.5-1,1-1S19.9,7.1,19.9,7.7z"/>
<path class="st0" d="M36,7.7c0,0.6-0.5,1-1,1s-1-0.5-1-1s0.5-1,1-1S36,7.1,36,7.7z"/>
<path class="st0" d="M28.1,1.5c0,0.6-0.5,1-1,1s-1-0.4-1-1s0.5-1,1-1S28.1,1,28.1,1.5z"/>
<path class="st1" d="M46.4,17.5c1.8-2.5,2.8-4.3,2.8-4.3c-0.9,1.2-2.1,2.4-3.1,3.9c-3,4.3-7.7,11.9-12.5,20.6
	c0.1,0.8,0.2,1.6,0.3,2.4C37.4,33.1,42.1,24.1,46.4,17.5L46.4,17.5z"/>
<path class="st2" d="M52.4,24l-1.6,1.2c2.2-5.5-0.8-14.7-0.8-14.7s-9.5,1.9-13.2,6.5l0.3-2c0,0-5.1,2.9-9.3,8.7
	c1.4,2.6,4.2,8.2,5.2,14c4.8-8.7,9.5-16.3,12.5-20.6c1-1.5,2.2-2.7,3.1-3.9c0,0-1,1.7-2.8,4.3c-4.3,6.6-9,15.6-12.6,22.7
	c0.3,4.4-0.7,8.6-4.4,11.4c11,3.9,19.9-10.7,19.9-10.7l-2.3,0.5C52.4,33.3,52.4,24,52.4,24L52.4,24z"/>
</svg>
